<svg width="528" height="102" viewBox="0 0 528 102" fill="none" xmlns="http://www.w3.org/2000/svg">
<path fill-rule="evenodd" clip-rule="evenodd" d="M46.1418 102C53.6175 102 60.3725 96.0798 65.2024 86.5499C77.1095 87.7913 86.7259 84.9975 90.7636 78.0233C94.7201 71.1894 92.5126 61.7364 85.8066 52.2678C92.3397 42.9047 94.4553 33.585 90.5426 26.8267C86.676 20.1481 77.6936 17.303 66.4829 18.164C61.6066 7.05696 54.3037 0 46.1418 0C37.9408 0 30.6072 7.1246 25.7309 18.3236C14.7597 17.5876 5.99204 20.4469 2.18467 27.0233C-1.70042 33.7339 0.358023 42.9699 6.78315 52.2663C0.184612 61.6696 -1.96566 71.0398 1.96364 77.8267C5.94278 84.6998 15.3399 87.5128 27.0079 86.4049C31.8427 96.0197 38.6282 102 46.1418 102ZM31.9533 85.7237C36.0686 93.6286 41.5905 98.4653 47.6608 98.4653C53.5703 98.4653 59.1785 93.8816 63.4906 86.3457C58.0302 85.6137 52.1363 84.0636 46.1099 81.7087C41.246 83.5752 36.4742 84.9158 31.9533 85.7237ZM39.434 78.7904C36.1433 79.8541 32.9389 80.6549 29.8815 81.1886C28.7033 78.2467 27.6938 75.0075 26.8835 71.5337C28.8935 72.9026 30.9957 74.2225 33.1825 75.4815C35.2609 76.6781 37.3487 77.7813 39.434 78.7904ZM46.1305 76.3064C49.7306 74.8008 53.3825 73.0003 57.0128 70.9101C62.2748 67.8805 67.0309 64.5075 71.1553 60.9761C71.5193 57.7595 71.7123 54.422 71.7123 51C71.7123 46.6211 71.3963 42.3807 70.8104 38.3546C67.3401 35.5364 63.4705 32.8621 59.2596 30.4377C54.8785 27.9153 50.4474 25.8471 46.1023 24.23C41.9249 25.817 37.6732 27.8198 33.4677 30.2412C30.8223 31.7643 28.3115 33.386 25.9499 35.0801C25.0901 40.0565 24.622 45.4156 24.622 51C24.622 55.6455 24.946 60.1351 25.5498 64.3782C28.6674 66.7448 32.0696 69.008 35.7144 71.1066C39.1882 73.1066 42.6816 74.8414 46.1305 76.3064ZM52.8064 78.8279C55.0535 77.7559 57.3046 76.5747 59.5447 75.285C63.2848 73.1316 66.7774 70.8003 69.9846 68.3505C68.9627 73.2999 67.5239 77.8436 65.7671 81.8193C61.7085 81.3247 57.3359 80.3238 52.8064 78.8279ZM71.3392 67.2953C70.4002 72.6417 69.0118 77.5916 67.2602 81.9797C77.2675 82.9076 85.1652 80.6223 88.4538 74.9421C91.6202 69.4727 90.042 61.6699 84.8509 53.5953C81.3697 58.2866 76.7982 62.9589 71.3392 67.2953ZM82.7622 48.3353C88.1554 40.4276 89.899 32.7827 86.7134 27.2802C83.6301 21.9546 76.3762 19.4079 67.127 19.6894C69.2744 24.979 70.8902 31.1018 71.8208 37.7625C76.0362 41.1368 79.715 44.7105 82.7622 48.3353ZM65.5798 19.7617C67.7903 24.6511 69.5152 30.426 70.565 36.7755C67.2599 34.2247 63.646 31.7991 59.7658 29.565C55.7337 27.2435 51.6657 25.2737 47.6504 23.6597C53.9747 21.402 60.0926 20.1058 65.5798 19.7617ZM64.8961 18.3091C59.0529 18.9272 52.661 20.5152 46.1079 23.056C40.7888 21.0313 35.5829 19.6362 30.6982 18.8801C34.9089 9.44639 40.9498 3.53465 47.6608 3.53465C54.2355 3.53465 60.4372 9.20845 64.8961 18.3091ZM44.5588 23.6732C39.5359 21.9186 34.651 20.7727 30.1179 20.2305C28.4813 24.1872 27.1545 28.7045 26.2148 33.623C28.3598 32.1444 30.6118 30.7213 32.9615 29.3685C36.8203 27.1468 40.7119 25.2472 44.5588 23.6732ZM20.4377 37.9438C21.3535 31.29 22.9526 25.1687 25.0824 19.8731C16.0807 19.7008 9.03942 22.2509 6.01392 27.4768C2.85747 32.9288 4.54031 40.4843 9.81777 48.3146C12.7807 44.7647 16.3503 41.2614 20.4377 37.9438ZM7.74162 53.6095C11.1385 58.225 15.5931 62.8262 20.9123 67.1112C21.8409 72.4662 23.2198 77.4267 24.9628 81.8273C15.1948 82.633 7.50664 80.3301 4.27353 74.7456C1.1346 69.3238 2.65811 61.609 7.74162 53.6095ZM10.6457 49.5043C13.2739 46.1323 16.4955 42.7704 20.2291 39.5669C19.7903 43.2423 19.5586 47.0692 19.5586 51C19.5586 53.9815 19.6919 56.9033 19.9478 59.7445C16.2428 56.3978 13.1076 52.9337 10.6457 49.5043ZM81.934 49.5123C79.3917 53.017 76.1488 56.5549 72.3158 59.9636C72.5847 57.0535 72.725 54.0582 72.725 51C72.725 46.9972 72.4847 43.1021 72.0301 39.3649C75.8927 42.6281 79.223 46.0635 81.934 49.5123Z" fill="url(#paint0_linear_805_84)"/>
<path d="M114 30.0994H139.765C145.173 30.0994 149.817 31.658 153.698 34.7753C157.642 37.829 159.614 42.4413 159.614 48.6123C159.614 51.8568 158.946 54.7514 157.61 57.2961C156.274 59.8409 154.747 61.6222 153.03 62.64C155.511 63.3398 157.801 65.0893 159.9 67.8885C162 70.6241 163.05 74.2504 163.05 78.7672C163.05 84.4292 161.046 89.0097 157.038 92.5087C153.093 96.0077 148.227 97.7572 142.437 97.7572H114V30.0994ZM126.406 42.1232V58.823H138.716C141.26 58.7593 143.233 57.9959 144.632 56.5327C146.032 55.0695 146.732 53.0973 146.732 50.6162C146.732 48.1351 145.936 46.0993 144.346 44.5089C142.755 42.9184 140.624 42.1232 137.952 42.1232H126.406ZM126.31 68.7474V85.7334H141.388C144.187 85.7334 146.35 84.97 147.877 83.4432C149.467 81.9163 150.262 79.8806 150.262 77.3358C150.262 74.7911 149.372 72.7235 147.59 71.1331C145.873 69.5426 143.678 68.7474 141.006 68.7474H126.31Z" fill="#1F2937"/>
<path d="M214.114 82.8706H186.631L181.001 97.7572H168.405L194.361 30.0994H207.243L233.677 97.7572H219.935L214.114 82.8706ZM210.297 72.7553L200.277 47.0854L190.544 72.7553H210.297Z" fill="#1F2937"/>
<path d="M253.808 85.3517H281.673V97.7572H240.926V30.0994H253.808V85.3517Z" fill="#1F2937"/>
<path d="M303.665 85.3517H331.53V97.7572H290.782V30.0994H303.665V85.3517Z" fill="#1F2937"/>
<path d="M353.522 97.7572H340.639V30.0994H353.522V97.7572Z" fill="#1F2937"/>
<path d="M389.092 28C395.899 28 401.784 29.495 406.746 32.4851L401.116 43.1729C396.535 41.2007 392.082 40.2147 387.756 40.2147C384.511 40.2147 381.935 40.8827 380.026 42.2186C378.181 43.491 377.259 45.3359 377.259 47.7534C377.259 49.9164 378.34 51.7614 380.503 53.2882C382.73 54.7514 386.07 56.3419 390.523 58.0595C394.977 59.7136 398.221 61.1132 400.257 62.2583C407.191 66.139 410.69 71.6738 410.754 78.8627C410.754 85.3517 408.368 90.473 403.597 94.2264C398.825 97.9163 392.909 99.7612 385.847 99.7612C381.903 99.7612 377.8 99.0296 373.537 97.5664C369.275 96.1032 365.967 94.4809 363.613 92.6996L370.484 82.3935C377.036 86.2105 383.08 87.8964 388.615 87.4511C391.223 87.2603 393.418 86.4014 395.199 84.8746C396.98 83.3477 397.744 81.3756 397.489 78.9581C397.299 76.9223 395.931 75.2364 393.386 73.9005C390.841 72.5645 387.438 71.1013 383.175 69.5108C378.977 67.8567 375.605 66.0436 373.06 64.0715C367.016 59.6182 363.994 54.3379 363.994 48.2305C363.994 44.6679 364.726 41.5506 366.189 38.8787C367.653 36.1431 369.593 34.0119 372.01 32.4851C374.491 30.9582 377.163 29.8449 380.026 29.1451C382.889 28.3817 385.911 28 389.092 28Z" fill="#1F2937"/>
<path d="M467.472 42.5049H447.241V97.7572H434.359V42.5049H414.51V30.0994H467.472V42.5049Z" fill="#1F2937"/>
<path d="M508.224 82.8706H480.741L475.11 97.7572H462.514L488.47 30.0994H501.353L527.786 97.7572H514.045L508.224 82.8706ZM504.407 72.7553L494.387 47.0854L484.653 72.7553H504.407Z" fill="#1F2937"/>
<path d="M123.499 13.14H117.419L115.919 17H114.079L119.579 2.82H121.419L126.979 17H124.999L123.499 13.14ZM122.879 11.6L120.439 5.3L117.999 11.6H122.879ZM140.732 2.82H145.792C147.072 2.82 148.152 3.2 149.032 3.96C149.912 4.70667 150.352 5.76 150.352 7.12C150.352 8.48 149.912 9.54 149.032 10.3C148.152 11.06 147.072 11.44 145.792 11.44L142.592 11.42V17H140.732V2.82ZM142.592 9.64H145.812C146.558 9.65333 147.178 9.43333 147.672 8.98C148.165 8.52667 148.412 7.90667 148.412 7.12C148.412 6.33333 148.158 5.72 147.652 5.28C147.158 4.82667 146.538 4.6 145.792 4.6H142.592V9.64ZM170.956 13.14H164.876L163.376 17H161.536L167.036 2.82H168.876L174.436 17H172.456L170.956 13.14ZM170.336 11.6L167.896 5.3L165.456 11.6H170.336ZM193.532 2.36C194.758 2.36 195.865 2.66 196.852 3.26C197.838 3.86 198.652 4.7 199.292 5.78L197.592 6.62C196.512 4.91333 195.158 4.06 193.532 4.06C192.132 4.06 190.965 4.62667 190.032 5.76C189.112 6.88 188.652 8.26 188.652 9.9C188.652 11.5667 189.112 12.96 190.032 14.08C190.952 15.1867 192.118 15.74 193.532 15.74C195.212 15.74 196.558 14.9267 197.572 13.3L199.252 14.12C198.625 15.1867 197.812 16.0067 196.812 16.58C195.825 17.1533 194.732 17.44 193.532 17.44C191.558 17.44 189.932 16.7333 188.652 15.32C187.372 13.8933 186.732 12.0867 186.732 9.9C186.732 7.74 187.378 5.94667 188.672 4.52C189.965 3.08 191.585 2.36 193.532 2.36ZM223.933 17H222.073V10.8H215.213V17H213.353V2.82H215.213V9.02H222.073V2.82H223.933V17ZM246.513 4.6H240.553V9.02H245.033V10.8H240.553V15.22H246.513V17H238.693V2.82H246.513V4.6ZM277.829 2.82H282.229C284.403 2.82 286.196 3.46667 287.609 4.76C289.036 6.05333 289.749 7.76667 289.749 9.9C289.749 12.0467 289.029 13.7667 287.589 15.06C286.163 16.3533 284.363 17 282.189 17H277.829V2.82ZM279.689 4.6V15.22H282.129C282.849 15.22 283.536 15.12 284.189 14.92C284.843 14.72 285.443 14.4133 285.989 14C286.549 13.5867 286.989 13.0267 287.309 12.32C287.643 11.6133 287.809 10.8 287.809 9.88C287.809 8.96 287.643 8.15333 287.309 7.46C286.989 6.75333 286.549 6.2 285.989 5.8C285.443 5.38667 284.843 5.08667 284.189 4.9C283.536 4.7 282.856 4.6 282.149 4.6H279.689ZM311.452 13.14H305.372L303.872 17H302.032L307.532 2.82H309.372L314.932 17H312.952L311.452 13.14ZM310.832 11.6L308.392 5.3L305.952 11.6H310.832ZM336.702 4.6H332.222V17H330.362V4.6H326.022V2.82H336.702V4.6ZM357.171 13.14H351.091L349.591 17H347.751L353.251 2.82H355.091L360.651 17H358.671L357.171 13.14ZM356.551 11.6L354.111 5.3L351.671 11.6H356.551ZM382.223 4.6H376.263V9.02H380.743V10.8H376.263V17.02H374.403V2.82H382.223V4.6ZM407.786 2.82V11.94C407.773 13.58 407.226 14.9067 406.146 15.92C405.066 16.9333 403.693 17.44 402.026 17.44C400.36 17.44 398.986 16.94 397.906 15.94C396.84 14.9267 396.3 13.5933 396.286 11.94V2.82H398.146V11.94C398.16 13.0467 398.526 13.9467 399.246 14.64C399.98 15.32 400.906 15.66 402.026 15.66C403.146 15.66 404.073 15.32 404.806 14.64C405.54 13.9467 405.913 13.0467 405.926 11.94V2.82H407.786ZM427.084 2.36C428.364 2.36 429.471 2.64 430.404 3.2L429.584 4.74C428.704 4.32667 427.811 4.12 426.904 4.12C426.051 4.12 425.377 4.32 424.884 4.72C424.404 5.10667 424.164 5.63333 424.164 6.3C424.164 6.7 424.311 7.07333 424.604 7.42C424.911 7.75333 425.231 8.01333 425.564 8.2C425.911 8.37333 426.417 8.61333 427.084 8.92C427.764 9.21333 428.257 9.44667 428.564 9.62C429.444 10.0867 430.104 10.6 430.544 11.16C430.997 11.72 431.231 12.4467 431.244 13.34C431.257 14.6333 430.791 15.64 429.844 16.36C428.897 17.08 427.744 17.44 426.384 17.44C425.611 17.44 424.817 17.3067 424.004 17.04C423.191 16.7733 422.571 16.48 422.144 16.16L423.124 14.68C424.364 15.4 425.577 15.7267 426.764 15.66C427.471 15.6333 428.084 15.4267 428.604 15.04C429.124 14.64 429.371 14.08 429.344 13.36C429.304 12.84 429.071 12.4133 428.644 12.08C428.217 11.7333 427.571 11.3667 426.704 10.98C425.837 10.58 425.184 10.2333 424.744 9.94C423.971 9.44667 423.357 8.92 422.904 8.36C422.464 7.8 422.244 7.13333 422.244 6.36C422.244 5.04 422.711 4.04667 423.644 3.38C424.591 2.7 425.737 2.36 427.084 2.36ZM447.459 17H445.599V2.82H447.459V17ZM469.248 2.36C469.888 2.36 470.541 2.44667 471.208 2.62C471.875 2.79333 472.541 3.07333 473.208 3.46C473.888 3.84667 474.488 4.32667 475.008 4.9C475.528 5.46 475.948 6.17333 476.268 7.04C476.601 7.89333 476.768 8.84 476.768 9.88C476.755 12.0667 476.041 13.8667 474.628 15.28C473.215 16.68 471.421 17.4 469.248 17.44C468.608 17.44 467.955 17.3533 467.288 17.18C466.621 17.0067 465.948 16.72 465.268 16.32C464.601 15.92 464.008 15.44 463.488 14.88C462.968 14.3067 462.541 13.5867 462.208 12.72C461.888 11.8533 461.728 10.9067 461.728 9.88C461.715 7.72 462.428 5.92667 463.868 4.5C465.308 3.07333 467.101 2.36 469.248 2.36ZM469.248 4.06C468.288 4.06 467.428 4.24667 466.668 4.62C465.921 4.99333 465.335 5.48 464.908 6.08C464.495 6.66667 464.181 7.28667 463.968 7.94C463.755 8.59333 463.648 9.24 463.648 9.88C463.648 11.56 464.168 12.96 465.208 14.08C466.261 15.1867 467.608 15.74 469.248 15.74C470.141 15.74 470.955 15.5733 471.688 15.24C472.421 14.8933 473.008 14.44 473.448 13.88C473.888 13.3067 474.228 12.68 474.468 12C474.708 11.3067 474.828 10.6 474.828 9.88C474.815 8.17333 474.295 6.78 473.268 5.7C472.241 4.62 470.901 4.07333 469.248 4.06ZM501.965 17H500.065L492.725 6.04V17H490.985V2.82H492.765L500.225 13.82V2.82H501.965V17Z" fill="#1F2937"/>
<path d="M509.863 3.97065H508.28V8.29376H507.272V3.97065H505.719V3H509.863V3.97065Z" fill="#1F2937"/>
<path d="M515.719 8.29376H514.748V4.8965L513.359 7.51724H512.717L511.328 4.8965L511.321 8.29376H510.38V3H511.328L513.076 6.233L514.748 3H515.711L515.719 8.29376Z" fill="#1F2937"/>
<defs>
<linearGradient id="paint0_linear_805_84" x1="0" y1="0" x2="111" y2="27.0674" gradientUnits="userSpaceOnUse">
<stop stop-color="#5800FF"/>
<stop offset="0.489583" stop-color="#E900FF"/>
<stop offset="1" stop-color="#FFC600"/>
</linearGradient>
</defs>
</svg>
